<svg width="289" height="32" viewBox="0 0 289 32" fill="none" xmlns="http://www.w3.org/2000/svg">
<g clip-path="url(#clip0_1_5)">
<g clip-path="url(#clip1_1_5)">
<g clip-path="url(#clip2_1_5)">
<path d="M21.1633 18.56C18.6887 23.68 16.5553 26.5813 10.582 26.5813C4.60867 26.5813 0.128671 22.4853 0.128671 16.5547C0.128671 11.392 2.902 8.23467 6.102 6.144L6.358 6.35733C4.77934 8.27733 3.88334 10.7093 3.88334 13.2267C3.75534 15.9147 4.95 18.56 7.04067 20.2667L7.894 19.7973C8.61934 19.4133 8.79 19.0293 8.79 17.8773V9.13067L7.382 9.89867L7.21134 9.472C7.21134 9.472 11.4353 6.82667 12.4167 6.31467V6.272C8.662 5.20533 7.97934 3.968 5.59 3.968C3.20067 3.968 1.75 5.54667 0.384671 8.91733L0.000671387 8.74667C0.171338 4.992 1.83534 0 8.662 0C10.0273 0 11.478 0.768 13.2273 1.49333C14.4647 2.13333 15.83 2.56 17.1953 2.816C18.8167 2.944 20.31 1.96267 20.822 0.426667L21.078 0.597333C20.7793 2.85867 18.8593 5.97333 16.214 6.48533V21.5467C18.0913 21.0347 19.7553 19.84 20.822 18.176L21.1633 18.56ZM15.702 21.76V6.61333C15.318 6.656 14.934 6.69867 14.5073 6.656C13.9953 6.61333 13.4407 6.528 12.9287 6.4V15.4453C12.9287 16.8533 12.4167 17.3653 11.0087 18.2187L7.42467 20.4373C9.00334 21.5893 10.8807 22.144 12.8433 22.1013C13.8247 22.144 14.7633 22.016 15.702 21.76ZM34.3047 11.3493C33.9633 11.52 33.7073 11.9893 33.7073 12.8853V21.9733C33.5793 26.24 31.062 30.1227 27.2647 32.0427L27.0087 31.744C28.5873 30.2507 29.4833 27.6907 29.4833 24.448V12.5867L27.1793 11.008L26.4967 11.5627V22.144L28.1607 23.1253L25.1313 26.112L21.462 23.7227C22.0593 23.3387 22.4007 22.656 22.3153 21.9307V2.90133L27.2647 0.170667L27.478 0.512C26.7953 0.981333 26.4967 1.32267 26.4967 2.64533V11.0933L29.7393 8.064L34.3047 11.264V11.3493ZM47.1473 14.0373L40.3207 17.92V21.1627L43.5207 23.2533L45.2273 21.6747L45.5687 22.016L40.9607 26.0693L35.286 22.272V22.2293C35.798 21.888 36.0967 21.3333 36.0967 20.736V12.5867L43.862 8.14933L47.1473 14.0373ZM43.1793 15.8293L40.4487 10.6667H40.3633V17.4507L43.1793 15.8293ZM154.753 22.2293L150.87 26.1547L145.707 22.9973V22.912C146.262 22.5707 146.561 21.9307 146.561 21.2907V11.6907H144.342L145.323 9.51467H146.561V6.10133L151.467 3.49867L151.681 3.84C151.041 4.224 150.657 4.94933 150.699 5.71733V9.38667H154.113L152.961 11.6907H150.657V21.76L153.217 23.04L154.369 21.9307L154.753 22.2293ZM144.769 22.2293L140.801 26.1547L135.638 22.9973V22.912C136.193 22.5707 136.491 21.9307 136.491 21.2907V11.6907H134.273L135.254 9.51467H136.491V6.10133L141.483 3.49867L141.654 3.84C141.014 4.224 140.63 4.94933 140.673 5.71733V9.38667H144.086L143.062 11.6907H140.758V21.76L143.318 23.04L144.47 21.9307L144.769 22.2293ZM121.771 22.272L117.761 26.0267L113.537 23.1253V23.0827C114.091 22.6987 114.433 22.016 114.39 21.376V2.90133L119.297 0.384L119.51 0.725333C118.87 1.28 118.529 1.536 118.529 3.072V21.76L120.321 22.8693L121.43 22.016L121.771 22.272ZM113.665 9.13067C113.579 11.4347 112.598 12.8427 110.294 12.8427C109.185 12.7573 108.203 12.16 107.649 11.2213L107.094 11.8187V21.4187L109.313 23.04L110.678 21.6747L111.019 22.016L106.838 26.1547L101.974 22.8267V22.7413C102.571 22.3147 102.913 21.5467 102.785 20.8213V12.288L101.718 11.392L100.694 12.3733L100.31 12.032L104.278 8.14933L107.051 10.2827V11.3493H107.094L109.995 8.192H110.038C110.763 8.87467 111.702 9.25867 112.683 9.25867C113.025 9.25867 113.323 9.216 113.665 9.13067ZM86.6567 11.3493C86.2727 11.52 86.0167 11.9893 86.0167 12.8853V21.9307C85.8887 26.1973 83.414 30.08 79.574 32L79.318 31.7013C80.8967 30.208 81.7927 27.648 81.7927 24.4053V12.5867L79.5313 11.008L78.8487 11.52V22.1013L80.47 23.0827L77.4407 26.0693L73.814 23.68C74.4113 23.296 74.71 22.6133 74.6247 21.888V2.90133L79.574 0.170667L79.7447 0.512C79.062 0.981333 78.7633 1.32267 78.7633 2.688V11.0933L81.9633 8.064L86.5287 11.264L86.6567 11.3493Z" fill="#006DB6"/>
<path d="M165.974 14.0373L159.147 17.92V21.1627L162.347 23.2533L164.054 21.6747L164.395 22.016L159.787 26.0693L154.07 22.272V22.1867C154.582 21.8453 154.881 21.2907 154.923 20.6933V12.5867L162.731 8.10665L165.974 14.0373ZM162.091 15.8293L159.318 10.6667H159.233V17.4933L162.091 15.8293ZM133.675 11.0933C133.206 11.4347 132.993 11.904 132.993 12.8427V21.9307L125.91 26.112L120.918 22.784V22.7413C121.43 22.4 121.771 21.8027 121.771 21.1627V12.4587L129.067 8.10665L133.675 11.0507V11.0933ZM128.811 23.552V12.16L126.038 10.4107H125.995V21.8027L128.726 23.552H128.811ZM101.505 22.1867L97.6647 26.0267L94.3793 23.6373L90.966 26.0693C88.79 25.344 87.4247 23.2533 87.5527 20.992C87.5527 18.3893 88.918 16.5547 91.862 15.6587C90.1553 14.2507 88.2353 12.1173 88.2353 10.0267C88.1927 9.04532 88.918 8.19199 89.942 8.14932H90.0273C90.7953 8.10665 91.4353 8.66132 91.478 9.42932V9.68532C91.4353 10.5387 90.71 11.1787 89.8567 11.1787C90.1553 11.392 90.5393 11.4773 90.9233 11.4773C92.246 11.4773 93.654 9.42932 94.5927 8.02132L99.2433 11.0507V11.0933C98.646 11.4347 98.518 12.0747 98.518 13.3547V21.7173L100.139 22.8693L101.121 21.8027L101.505 22.1867ZM94.3793 15.0613V12.3733L92.6727 11.2213C92.2033 11.6907 91.606 11.9893 90.9233 11.9893C90.326 12.032 89.686 11.8187 89.2167 11.4347H89.174C89.43 12.7147 90.966 14.4213 92.2887 15.5733C92.9713 15.3173 93.654 15.1467 94.3793 15.0613ZM94.3793 23.1253V15.5733C92.502 15.5733 91.8193 17.4507 91.8193 19.6693C91.8193 21.5467 92.4593 22.9973 93.6967 23.552L94.3793 23.1253ZM73.942 20.8213C70.998 25.216 68.0967 26.6667 62.9767 26.6667C56.5767 26.6667 52.2673 21.12 52.2673 14.336C52.2673 7.16799 57.4727 2.94399 60.886 2.09065L61.0567 2.43199C58.454 4.01065 56.7047 7.29599 56.7047 12.8853C56.662 15.36 57.4727 17.792 59.0513 19.712L59.5633 19.4133C60.246 19.072 60.63 18.304 60.5447 17.5787V5.24799L59.3073 5.97332L59.0513 5.54665L67.4993 0.383988C68.694 2.13332 70.8273 3.02932 72.8753 2.55999L72.918 2.64532C72.662 4.60799 70.998 6.05865 69.0353 6.05865C68.438 6.10132 67.798 5.97332 67.2433 5.80265V22.912C69.6327 22.8267 71.894 21.9733 73.7287 20.5227L73.942 20.8213ZM66.8593 22.9547V5.63199C65.9207 5.16265 65.1527 4.43732 64.598 3.49865V14.464C64.598 16.2987 64.598 16.9387 62.9767 17.9627L59.478 20.1813C61.2273 21.9307 63.4887 22.784 66.8593 22.9547ZM288.939 9.13065C288.854 11.4347 287.873 12.8427 285.569 12.8427C284.502 12.7573 283.478 12.16 282.923 11.2213L282.369 11.8187V21.4187L284.587 23.04L285.953 21.6747L286.251 22.016L282.07 26.1547L277.206 22.8267V22.7413C277.846 22.3147 278.145 21.5467 278.017 20.8213V12.288L276.95 11.392L275.883 12.416L275.499 12.0747L279.467 8.19199L282.198 10.3253V11.392H282.283L285.185 8.23465H285.27C285.995 8.91732 286.977 9.30132 288.001 9.25865C288.299 9.25865 288.598 9.21599 288.897 9.08799L288.939 9.13065ZM263.553 10.624C262.913 11.008 262.529 11.7333 262.571 12.5013V21.888L255.489 26.0267L250.326 22.6133C250.923 22.2293 251.265 21.5467 251.179 20.8213V13.8667C251.179 11.136 249.473 11.0933 249.473 9.08799C249.473 6.69865 252.374 5.80265 254.337 5.80265L254.55 6.27199C253.782 6.14399 253.099 6.65599 252.971 7.38132V7.55199C252.971 9.30132 255.446 9.17332 255.446 12.416V21.5467L258.219 23.552L258.347 23.4667V12.2027L256.641 11.0507L259.627 8.10665L263.553 10.624ZM248.918 9.13065C248.833 11.4347 247.809 12.8427 245.547 12.8427C244.481 12.7573 243.457 12.16 242.902 11.2213L242.347 11.8187V21.4187L244.566 23.04L245.931 21.6747L246.273 22.016L242.091 26.1547L237.313 22.8267V22.7413C237.953 22.3147 238.251 21.5467 238.123 20.8213V12.288L237.057 11.392L235.99 12.416L235.563 12.0747L239.574 8.19199L242.262 10.3253V11.392H242.347L245.249 8.23465H245.334C246.059 8.91732 247.041 9.30132 248.022 9.30132C248.321 9.30132 248.619 9.25865 248.875 9.13065H248.918ZM275.798 14.0373L268.971 17.92V21.1627L272.171 23.2533L273.878 21.6747L274.219 22.016L269.654 26.112L263.937 22.3147V22.2293C264.449 21.888 264.747 21.3333 264.79 20.736V12.5867L272.555 8.10665L275.798 14.0373ZM271.915 15.8293L269.142 10.6667H269.057V17.4933L271.915 15.8293ZM235.734 14.0373L228.907 17.92V21.1627L232.107 23.2533L233.814 21.6747L234.155 22.016L229.59 26.0693L223.873 22.272V22.1867C224.385 21.8453 224.683 21.2907 224.726 20.6933V12.5867L232.577 8.10665L235.734 14.0373ZM231.851 15.8293L229.078 10.6667H228.993V17.4933L231.851 15.8293ZM222.721 22.0587L216.107 26.112C215.254 25.4293 214.187 25.0453 213.121 25.1307C212.225 25.1307 211.371 25.472 210.646 26.0267L210.305 25.8133C211.585 23.9787 214.785 19.1573 214.785 19.1573L211.073 16.8533V12.3733L218.155 8.19199C218.625 8.95999 219.435 9.42932 220.331 9.47199C221.441 9.47199 221.953 9.00265 221.953 8.31999C221.953 8.10665 221.953 7.89332 221.825 7.67999L222.55 7.33865C222.635 7.55199 222.678 7.76532 222.678 8.02132C222.678 8.53332 222.507 9.04532 222.209 9.42932L218.753 14.4213L222.763 17.152L222.721 22.0587ZM219.521 12.2027C219.051 12.416 218.582 12.544 218.027 12.5013C216.961 12.416 216.022 11.904 215.339 11.136V15.0187L216.961 16.0853C217.985 14.592 218.539 13.6107 219.521 12.2027ZM218.411 22.9973V18.944L216.491 17.5787C215.211 19.328 212.609 23.424 212.609 23.424C213.505 22.8693 214.571 22.5707 215.638 22.4853C216.534 22.4853 217.515 22.656 218.411 22.9973ZM209.921 11.136C209.451 11.4347 209.238 11.904 209.238 13.0133V21.9307L202.155 26.0267L196.993 22.4853V22.4C197.633 21.9307 197.931 21.12 197.846 20.352V2.90132L202.795 0.170654L203.009 0.469321C202.283 0.938654 201.942 1.83465 202.027 2.68799V11.1787L205.227 8.06399L209.921 11.0507V11.136ZM204.971 23.5947V12.5867L202.539 11.0507L202.027 11.7333V21.4613L204.971 23.5947ZM196.182 11.6907C196.182 19.84 190.934 26.5813 184.321 26.5813C177.281 26.5813 172.971 20.864 172.971 14.3787C172.843 8.78932 176.171 3.71199 181.334 1.57865L181.675 1.79199C179.03 3.92532 177.451 7.63732 177.451 13.4827C177.409 15.744 178.134 17.9627 179.542 19.7547L180.225 19.4133C180.907 19.0293 181.291 18.2613 181.206 17.4933V5.58932L179.969 6.31465L179.798 5.84532L188.971 0.383988C192.171 1.36532 196.182 4.86399 196.182 11.6907ZM192.683 12.3733C192.257 9.25865 190.55 6.44265 187.947 4.69332V12.3307C188.758 12.544 189.569 12.672 190.379 12.672C191.147 12.6293 191.958 12.544 192.683 12.3733ZM192.769 13.6533V12.672C192.001 12.8853 191.233 12.9707 190.422 12.9707C189.611 12.9707 188.758 12.8427 187.99 12.6293V14.7627C188.801 14.5493 189.611 14.4213 190.422 14.4213C191.233 14.4213 192.001 14.5067 192.769 14.72V13.6533ZM192.769 15.1467C192.001 14.9333 191.233 14.8053 190.422 14.8053C189.611 14.8053 188.758 14.9333 187.99 15.1467V22.912C191.105 22.3573 192.513 19.4987 192.726 15.104H192.769V15.1467ZM187.606 23.04V4.43732C186.923 3.96799 186.198 3.62665 185.43 3.32799L185.387 3.41332V14.6773C185.387 16.9387 185.046 17.0667 183.297 18.176L180.054 20.224C181.718 22.0587 184.065 23.0827 186.539 23.0827C186.881 23.1253 187.265 23.1253 187.606 23.04Z" fill="#006DB6"/>
</g>
</g>
</g>
<defs>
<clipPath id="clip0_1_5">
<rect width="288.94" height="32" fill="white"/>
</clipPath>
<clipPath id="clip1_1_5">
<rect width="288.94" height="32" fill="white"/>
</clipPath>
<clipPath id="clip2_1_5">
<rect width="288.939" height="32" fill="white" transform="translate(0.000671387)"/>
</clipPath>
</defs>
</svg>
