<svg xmlns="http://www.w3.org/2000/svg" viewBox="0 0 520 120" width="100%" height="100%">
  <g transform="translate(5, 5)">
    <!-- Palette Shape -->
    <path fill-rule="evenodd" d="M 8.00,11.50 C 5.38,14.75 2.38,18.25 1.25,23.50 C 0.12,28.75 -0.38,36.75 1.25,43.00 C 2.88,49.25 7.25,56.12 11.00,61.00 C 14.75,65.88 17.75,68.88 23.75,72.25 C 29.75,75.62 40.38,79.75 47.00,81.25 C 53.62,82.75 57.75,82.38 63.50,81.25 C 69.25,80.12 77.38,76.88 81.50,74.50 C 85.62,72.12 87.25,69.50 88.25,67.00 C 89.25,64.50 89.88,60.38 87.50,59.50 C 85.12,58.62 78.00,62.62 74.00,61.75 C 70.00,60.88 65.25,56.50 63.50,54.25 C 61.75,52.00 62.38,50.12 63.50,48.25 C 64.62,46.38 67.25,43.50 70.25,43.00 C 73.25,42.50 78.38,43.62 81.50,45.25 C 84.62,46.88 86.75,52.25 89.00,52.75 C 91.25,53.25 94.75,52.38 95.00,48.25 C 95.25,44.12 93.88,34.38 90.50,28.00 C 87.12,21.62 80.38,14.50 74.75,10.00 C 69.12,5.50 63.75,2.88 56.75,1.00 C 49.75,-0.88 39.38,-1.75 32.75,-1.25 C 26.12,-0.75 21.12,1.88 17.00,4.00 C 12.88,6.12 10.62,8.25 8.00,11.50 Z M 45.50,67.75 C 45.62,68.50 45.38,68.50 46.25,69.25 C 47.12,70.00 49.38,71.62 50.75,72.25 C 52.12,72.88 53.75,73.00 54.50,73.00 C 55.25,73.00 54.88,72.38 55.25,72.25 C 55.62,72.12 56.00,72.62 56.75,72.25 C 57.50,71.88 59.25,71.25 59.75,70.00 C 60.25,68.75 60.62,66.25 59.75,64.75 C 58.88,63.25 56.12,61.62 54.50,61.00 C 52.88,60.38 51.50,60.38 50.00,61.00 C 48.50,61.62 46.25,63.62 45.50,64.75 C 44.75,65.88 45.38,67.00 45.50,67.75 Z" fill="#1a1a1a"/>

    <!-- Paint Dots -->
    <circle cx="30.88" cy="58.83" r="8.83" fill="#3cc8c8"/>
    <circle cx="15.12" cy="43.67" r="8.54" fill="#2b5ddb"/>
    <circle cx="70.62" cy="25.54" r="8.94" fill="#6abf4b"/>
    <circle cx="16.25" cy="22.6" r="8.81" fill="#f5e14b"/>
    <circle cx="53.28" cy="14.78" r="8.83" fill="#f5a34b"/>
    <circle cx="33.5" cy="11.88" r="8.68" fill="#f0a0d0"/>
    <circle cx="45" cy="36" r="8" fill="#ffffff"/>
  </g>

  <!-- "it's an" -->
  <text x="110" y="30" font-family="Georgia, 'Times New Roman', serif" font-size="22" font-style="italic" fill="#1a1a1a">it&#x2019;s an</text>

  <!-- "Art Party!" -->
  <text x="105" y="85" font-family="Georgia, 'Times New Roman', serif" font-size="68" font-weight="bold" fill="#1a1a1a" letter-spacing="-1.5">Art Party!</text>

  <!-- "art parties for ages 4+" -->
  <text x="112" y="108" font-family="Georgia, 'Times New Roman', serif" font-size="20" fill="#33b5a5">art parties for ages 4+</text>
</svg>
